<svg id="Layer_1" data-name="Layer 1" xmlns="http://www.w3.org/2000/svg" viewBox="0 0 232.22 62.26"><defs><style>.cls-1{fill:#78685b;}.cls-2{fill:#03b2b7;}</style></defs><title>brand-logo-trans</title><path class="cls-1" d="M494.88,249.2c1.53.74,3.12,1.27,3.64,3.09a3.12,3.12,0,0,1-1.89,3.83,3,3,0,0,1-3.56-1.49c-.9-1.78.14-3,1.49-4.13a5,5,0,0,0-5,1.41c-1.62,1.76-2.13,4.5-2.64,6.76-.57,2.56-1.11,5.13-1.64,7.7-.23,1.1-.1,2.06-1.4,2.07h-3.82c.55-2.5,1.08-5,1.64-7.5a20.18,20.18,0,0,1,2.46-6.73,11.31,11.31,0,0,1,4.18-3.83,10.18,10.18,0,0,1,2.75-1.13A21.3,21.3,0,0,1,494.88,249.2Z" transform="translate(-363.28 -249.13)"/><path class="cls-1" d="M418.28,287.31c.91.53.45,1.06,0,1.78a23,23,0,0,1-1.59,2.14,8,8,0,0,1-4.7,3,4.31,4.31,0,0,1-3.8-1.13c-1.12-1.17-1.21-2.81-1.45-4.33a15.74,15.74,0,0,1-5.21,4.63,8.46,8.46,0,0,1-6.17.5c-3.93-1.17-6.07-4.54-6.61-8.46-1.2-8.67,6.12-17.19,14.36-19a8.12,8.12,0,0,1,5,.23,7.73,7.73,0,0,1,3.71,4.41,8.83,8.83,0,0,0,.71-1.9c.14-.49.23-1.29.71-1.58s1.57-.07,2.08-.07h2.52a16.59,16.59,0,0,1-1.19,4.3l-1.47,4.76-3,9.71c-.39,1.27-2.5,6.25.29,6.34,1.21,0,2.38-1.09,3.15-1.9A38,38,0,0,0,418.28,287.31Zm-24.69-.39c0,1.75.19,3.78,1.47,5.1a4.46,4.46,0,0,0,4,1.11c5.08-.76,7.39-5.73,8.87-10.05,1-2.81,1.86-5.64,2.78-8.46a5.42,5.42,0,0,0-1.33-5.68,5.83,5.83,0,0,0-5.88-1.41c-2.16.66-3.64,2.5-4.87,4.29C395.55,276.29,394.32,281.63,393.59,286.92Z" transform="translate(-363.28 -249.13)"/><path class="cls-1" d="M507,265.72c5.13,0,9.82,2.89,11.24,8s-.32,11.73-3.82,15.74a14.24,14.24,0,0,1-17.77,3.4c-5.19-2.95-5.75-9.74-4.36-15a17.83,17.83,0,0,1,5.19-8.47A13.56,13.56,0,0,1,507,265.72Zm-10.45,19.89c0,4.07,2.07,8,6.62,8,5.19,0,7.4-5.48,8.82-9.61a29.52,29.52,0,0,0,1.68-7.7,12.84,12.84,0,0,0-.95-6.67,5.92,5.92,0,0,0-5-3,7.5,7.5,0,0,0-6,2.72,20.11,20.11,0,0,0-3.64,7.52A38.54,38.54,0,0,0,496.58,285.61Z" transform="translate(-363.28 -249.13)"/><path class="cls-1" d="M593.47,287.49c-2.21,3.38-5.16,6.19-9.28,6.84-3.2.51-6.7-.08-9-2.53-2.49-2.66-2.7-6.45-2.28-9.89a19.72,19.72,0,0,1,4.66-10.65c2.87-3.27,6.8-5.79,11.3-5.5,3.39.23,6.34,2.54,6.6,6.06.27,3.68-2.11,7.2-5.21,9a15.43,15.43,0,0,1-5.7,1.88,25.56,25.56,0,0,1-3.82.14c-.74,0-2.47-.45-3,.32a3.29,3.29,0,0,0-.14,1.57c0,.67,0,1.34.06,2a9.6,9.6,0,0,0,1,3.71,5.23,5.23,0,0,0,4.22,2.9,8.85,8.85,0,0,0,6-2.08,15.29,15.29,0,0,0,2.43-2.49C591.86,288.15,592.59,286.46,593.47,287.49ZM578,281.75c6.34.6,14.7-1.68,15.73-9.06.36-2.59-.93-5.21-3.67-5.67-3.36-.56-6,2.18-7.8,4.64A26.59,26.59,0,0,0,578,281.75Z" transform="translate(-363.28 -249.13)"/><path class="cls-1" d="M453.69,282.78c-.36,4,.05,10.34,5.38,10.58a9.08,9.08,0,0,0,6.07-2.35,16.28,16.28,0,0,0,2.25-2.4c.59-.75.86-1.68,1.88-1.2-2.69,5-8.31,8.28-14,6.72A8.52,8.52,0,0,1,449.3,289c-1-2.74-.74-6-.17-8.82,1.16-5.75,5.18-11.59,10.83-13.72,2.82-1.06,6.38-1.1,8.89.75a6.56,6.56,0,0,1,2.45,6.57,10.89,10.89,0,0,1-6,7.48C461.61,283.09,457.68,282.75,453.69,282.78Zm.17-1c5.77.51,13.26-1.12,15.32-7.35.94-2.86.51-6.42-2.86-7.35s-6.42,2.18-8.23,4.68A27,27,0,0,0,453.86,281.76Z" transform="translate(-363.28 -249.13)"/><path class="cls-1" d="M432.59,279.92a60.74,60.74,0,0,1,5.31-9.68c1.73-2.35,4.45-5.55,7.76-4.62a3.33,3.33,0,0,1,.9,6.06,3.42,3.42,0,0,1-3.67-.15c-1.19-.89-1.3-2.32-1.3-3.68a10.07,10.07,0,0,0-2.72,2.81,34.22,34.22,0,0,0-2.32,3.31,44.37,44.37,0,0,0-3.64,7.51,75.9,75.9,0,0,0-2.64,8.46c-.19.74-.36,1.48-.54,2.22-.1.43-.16,1-.59,1.25s-1.23.08-1.74.08c-.87,0-1.75,0-2.62,0l5.41-26-4.35.56c-.38,0-1,.12-.86-.5s.93-.46,1.4-.54l9-1.36L433.84,273l-.75,3.51-.39,1.84C432.6,278.78,432.19,279.75,432.59,279.92Z" transform="translate(-363.28 -249.13)"/><path class="cls-1" d="M531.93,279.74c.46-.19.59-.57.78-1,.3-.69.64-1.37,1-2,.63-1.29,1.29-2.57,2-3.81a20,20,0,0,1,5.3-6.39c1.85-1.29,4.81-1.58,6.19.55a3.32,3.32,0,0,1-2.19,5,3.25,3.25,0,0,1-3.07-1,5.12,5.12,0,0,1-.78-3.46,39.77,39.77,0,0,0-8.77,14.07,77.93,77.93,0,0,0-2.45,7.77q-.25.93-.48,1.87c-.1.39-.25,1.94-.54,2.19s-1,0-1.17,0h-3.42l5.4-25.89a36.65,36.65,0,0,0-4.22.47c-.32,0-.67.12-.88-.19-.57-.82.75-.79,1.2-.86l9.11-1.37Z" transform="translate(-363.28 -249.13)"/><path class="cls-1" d="M568.75,287.39c-3.15,4.67-8.18,8.37-14.1,6.84A8.76,8.76,0,0,1,549,289.8c-1.28-2.48-1.22-5.49-.87-8.19A19.87,19.87,0,0,1,557,267.55a11.46,11.46,0,0,1,9.5-1.45,5.8,5.8,0,0,1,4.3,5.87,3.74,3.74,0,0,1-2.28,3.46,3.31,3.31,0,0,1-3.89-1.14,2.94,2.94,0,1,1,5-3.08c.16-3.92-4.51-5.14-7.48-3.9-3.44,1.43-5.79,5.33-7.26,8.58-1.55,3.42-2.71,7.86-2,11.62.66,3.41,3,6.24,6.71,5.67a10,10,0,0,0,5.37-2.85,19.26,19.26,0,0,0,1.92-2.23C567.47,287.41,567.91,286.44,568.75,287.39Z" transform="translate(-363.28 -249.13)"/><path class="cls-1" d="M385.15,271.22a4.68,4.68,0,0,0-3.68-4.33,7.34,7.34,0,0,0-6.5,2.2,23.49,23.49,0,0,0-6.48,13.15,12.85,12.85,0,0,0,.75,7.9,5.33,5.33,0,0,0,4.35,3.09,8.89,8.89,0,0,0,6.26-2.36,16.51,16.51,0,0,0,2.19-2.35,12.57,12.57,0,0,1,.94-1.27c.26-.25,1.06-.49,1.15.16,0,.25-.69,1-.84,1.2-.34.46-.7.91-1.08,1.34a15.41,15.41,0,0,1-2.47,2.27,12.43,12.43,0,0,1-6.4,2.36,9.24,9.24,0,0,1-9.43-6.27c-1.61-4.81.08-10.48,2.59-14.69s6.94-7.81,12-8c2.58-.07,5.56.68,7,3,1.17,1.94,1.24,5.16-.9,6.47s-5,0-4.9-2.54a3,3,0,0,1,2.11-2.72A3.2,3.2,0,0,1,385.15,271.22Z" transform="translate(-363.28 -249.13)"/><path class="cls-1" d="M476.5,287.14h4.71c-.83,3.82-1.53,7.68-2.7,11.41-1.1,3.49-2.57,7-5.22,9.66-2.43,2.4-5.77,3.85-9.18,2.84a3.81,3.81,0,0,1-2.77-2.74,3.2,3.2,0,0,1,1.35-3.55,3,3,0,0,1,4.21,1.37,3.09,3.09,0,0,1,0,2.52,2.9,2.9,0,0,1-.77,1c-.24.2-.55.25-.59.62,4.64.39,6.65-4.22,7.67-8C474.58,297.34,475.45,292.2,476.5,287.14Z" transform="translate(-363.28 -249.13)"/><path class="cls-2" d="M481.46,285.4h-4.68l1-5.18h-5.48l.45-2.88.16-1.05c.12-.75.11-.7.88-.7H478c.68,0,.76.11.91-.58.21-.95.43-1.9.62-2.85.11-.54.09-1.48.54-1.86s1.27-.17,1.77-.16c.93,0,1.86,0,2.79,0l-1.07,5.43h5.55l-.32,2.15a8.68,8.68,0,0,1-.32,2.14l-.06.37h-3.85c-1,0-1.93-.22-2.18,1C482,282.58,481.77,284,481.46,285.4Z" transform="translate(-363.28 -249.13)"/><path class="cls-2" d="M500,308.62c1.16-1.1,1.17-2.91,2.88-3.48q0,1.44,0,2.88a9.78,9.78,0,0,1,0,2.82c-.28.74-.9.37-1-.27a28.72,28.72,0,0,1,0-2.93,35.5,35.5,0,0,0-1.9,3c-.8-.83-1.08-2-1.82-2.89a4,4,0,0,0-.14,2.11c0,.42-.49,2.09-.89,1.18a4.44,4.44,0,0,1,0-1.35v-4.47C498.86,305.65,498.73,307.68,500,308.62Z" transform="translate(-363.28 -249.13)"/><path class="cls-2" d="M408.77,307.17q0,1.47,0,2.93c0,.37-.19,1.87-.86.91-.34-.49-.05-2-.05-2.52q0-1.67,0-3.33c2.07.71,2.61,3,4.33,4.16v-3c0-.47-.16-.83.33-1,.32-.08.48,0,.62.26a7.6,7.6,0,0,1,0,2.58q0,1.6,0,3.2C411.06,310.72,410.49,308.36,408.77,307.17Z" transform="translate(-363.28 -249.13)"/><path class="cls-2" d="M373.93,311.26v-5.68q-.1-.39.39-.2a5.48,5.48,0,0,1,1.18,0h2.57c.34,0,.85-.08.69.47-.06.2-.12.23-.3.34-.47.27-1.47,0-2,0a4.55,4.55,0,0,0-1.35,0c-.31.13-.33.36-.33.75,0,1.09.8.56,1.55.76.27.07.56.16.29.57-.15.24-.47.25-.73.29-.72.12-1.13,0-1.14.84a2.57,2.57,0,0,0,.13.86c.13.13.93,0,1.16,0a8.88,8.88,0,0,1,2.49,0,.49.49,0,0,1,0,.95,6.42,6.42,0,0,1-2,0Z" transform="translate(-363.28 -249.13)"/><path class="cls-2" d="M527.42,307.74c0,.73-.32.78-1,.88-.46.06-.62,0-.82.38a1.63,1.63,0,0,0,0,.95c.2.47.25.35.83.35h1.13c.55,0,1.76-.24,2,.23s0,.6-.37.71a7.3,7.3,0,0,1-2,0h-2.53v-5.11c0-.79-.07-.79.72-.79h3.43c.36,0,.72-.08.66.42a.46.46,0,0,1-.22.38c-.38.33-1.73.06-2.2.06-.87,0-1.55-.22-1.51.86,0,.53.08.46.46.59A5.86,5.86,0,0,0,527.42,307.74Z" transform="translate(-363.28 -249.13)"/><path class="cls-2" d="M510.62,305.38c.51,1.24-1.52.83-2.19.84h-.87c-.47,0-.58-.09-.78.26a1,1,0,0,0,.11,1c.49.48,1.53-.2,1.84.41.52,1-1.5.54-1.8.79s-.37,1.27,0,1.53c.63.4,2.13.09,2.84.09.37,0,.88-.12,1,.31s-.26.57-.62.61a41.22,41.22,0,0,1-4.35,0v-5.88h.4a6.15,6.15,0,0,1,1.59,0Z" transform="translate(-363.28 -249.13)"/><path class="cls-2" d="M443.48,305.31h3c.42,0,1.66-.25,1.75.38.11.8-1.24.53-1.67.53h-1.8q-.44-.17-.43.24a1,1,0,0,0,.17,1.13c.44.35,1.05-.11,1.48.11a.5.5,0,0,1-.14.92,4.43,4.43,0,0,1-.81,0c-.54,0-.51,0-.68.43-.37,1,.16,1.24,1,1.26a12.52,12.52,0,0,1,2.59,0c.5.13.64.61.14.89s-1.58,0-2.12,0h-2.16q-.56.19-.37-.37a10,10,0,0,1,0-2.58Z" transform="translate(-363.28 -249.13)"/><path class="cls-2" d="M517.34,308.63a13,13,0,0,1,0,2.06c-.07.4-.49.89-.87.36s0-1.59,0-2.09q0-1.36,0-2.72c0-.38-.16-1,.42-1,.27,0,.33.1.46.32.29.53-.31,1.59.25,2a4.27,4.27,0,0,0,2.76-.17c.6-.49.14-1.79.6-2.11s.73.37.75.73c.06.92,0,1.87,0,2.8,0,.51.26,1.89-.16,2.25-.7.6-.75-.58-.75-.93a4.59,4.59,0,0,0,0-1.13q.16-.48-.34-.4l-.51-.05C519,308.57,518.19,308.66,517.34,308.63Z" transform="translate(-363.28 -249.13)"/><path class="cls-2" d="M382.12,305.31c1.1,0,2.2,0,3.31,0,.78,0,1.53.11,1.91.88a1.86,1.86,0,0,1-.44,2.25c-.11.1-.42.23-.49.36s0,.42.17.72l.76,1.57c-1.22.58-1.43-1-1.94-1.74a1.25,1.25,0,0,0-.71-.57,2.9,2.9,0,0,0-1.5.07c-.47.37.13,1.52-.17,2.08s-.74.27-.9-.19a9.27,9.27,0,0,1,0-2.55Q382.12,306.76,382.12,305.31Zm1,2.55c.58,0,4.57.36,3.39-1.29-.39-.55-1.7-.43-2.29-.4a5.84,5.84,0,0,0-.73.08q-.52-.08-.36.4A5.1,5.1,0,0,0,383.08,307.86Z" transform="translate(-363.28 -249.13)"/><path class="cls-2" d="M580.41,305.3c1,0,2.07,0,3.11,0a2.42,2.42,0,0,1,1.66.41,1.89,1.89,0,0,1-.74,3.11l1.08,2.27c-1,.48-1.2-.32-1.5-1a1.89,1.89,0,0,0-1.5-1.32c-.84-.1-1.3.15-1.3,1s.06,1.36-.8,1.66Zm.89,2.57c.61,0,4.41.4,3.39-1.27-.37-.61-1.64-.44-2.24-.43a6.84,6.84,0,0,0-.77.05q-.53-.11-.39.36A5,5,0,0,0,581.29,307.87Z" transform="translate(-363.28 -249.13)"/><path class="cls-2" d="M451.48,311.26v-4.32c0-.29-.18-1.33,0-1.54s1.27-.12,1.53-.12a11.68,11.68,0,0,1,1.67.07,2.65,2.65,0,0,1,1.87,1,3.25,3.25,0,0,1-.14,4C455.2,311.67,453.08,311.26,451.48,311.26Zm1-5v2.1c0,.29-.18,1.85,0,2a5,5,0,0,0,1.53,0,2.32,2.32,0,0,0,1.45-.46,2.12,2.12,0,0,0,.17-3.15C454.77,305.94,453.56,306.3,452.48,306.23Z" transform="translate(-363.28 -249.13)"/><path class="cls-2" d="M389.79,310.22c.31-.58.61-.57,1.13-.3a3.5,3.5,0,0,0,2.11.52,2.18,2.18,0,0,0,1.35-.45.81.81,0,0,0-.23-1.21c-1-.59-2.42.14-3.4-.54a1.57,1.57,0,0,1,.13-2.57,3.42,3.42,0,0,1,3.67,0c.3.17.64.37.3.71a.5.5,0,0,1-.43.15c-.24,0-.53-.25-.75-.32a2.61,2.61,0,0,0-1.15-.16c-.46,0-1.19.2-1.37.7s.3.79.77.84c1.07.13,2.73-.14,3.37,1s-.21,2.3-1.37,2.6A4.2,4.2,0,0,1,389.79,310.22Z" transform="translate(-363.28 -249.13)"/><path class="cls-2" d="M592.93,310.32c.31,1.09-.47.94-1.35.94H588v-5.17c0-.38-.1-.59.2-.73a6.86,6.86,0,0,1,2.15,0,9.58,9.58,0,0,1,1.94,0c.43.1.41-.08.4.34a.56.56,0,0,1,0,.28c-.33.51-1.83.24-2.3.24-.64,0-1.36-.23-1.47.57a1.25,1.25,0,0,0,.09.74c.17.22.39.15.7.15s1-.21,1,.32a.44.44,0,0,1-.21.41c-.19.17-.65.18-.89.22-.46.08-.54,0-.7.4a1.91,1.91,0,0,0,0,.94c.15.41.19.33.66.33h3.3Z" transform="translate(-363.28 -249.13)"/><path class="cls-2" d="M439.22,306.22h-2c-.26,0-1,.11-1.22-.08-.39-.33-.08-.75.26-.84a8.78,8.78,0,0,1,2.1,0c1,0,3-.2,1.8,1.28-1,1.2-2,2.37-3,3.55a6.83,6.83,0,0,0,2.25.19c.29,0,1-.1,1.23.11.56.52-.26.79-.6.81-.77,0-1.57,0-2.34,0-.47,0-1.52.21-1.93-.12-.57-.46.12-1,.43-1.39C437.27,308.58,438.25,307.39,439.22,306.22Z" transform="translate(-363.28 -249.13)"/><path class="cls-2" d="M491.09,311.36c-4.21,0-4-6.33.16-6.2S495.21,311.38,491.09,311.36Zm-2.22-3c.05,2.79,4.56,2.73,4.56,0S488.82,305.43,488.87,308.32Z" transform="translate(-363.28 -249.13)"/><path class="cls-2" d="M401.3,311.36c-4.18,0-4-6.32.14-6.2S405.4,311.38,401.3,311.36Zm0-.93a2.18,2.18,0,1,0,0-4.35A2.18,2.18,0,1,0,401.34,310.44Z" transform="translate(-363.28 -249.13)"/><path class="cls-2" d="M480,305.24c1.31.26.66,1.1,1,2,.19.55.69.41,1.18.41h1.75q.55.19.37-.35c.14-.59-.37-1.74.34-1.92.56-.14.6.27.64.69a25.57,25.57,0,0,1,0,2.59,7.21,7.21,0,0,1,0,2.16c-.1.28-.54.71-.9.36-.11-.11,0-.83,0-1s.14-1.28,0-1.42-1.82,0-2.2,0c-.55,0-.93-.17-1.17.31a2.4,2.4,0,0,0,0,.95c0,.41.17,1.29-.48,1.28s-.44-.62-.44-1Q480,307.73,480,305.24Z" transform="translate(-363.28 -249.13)"/><path class="cls-2" d="M553.86,311.14c-.53,0-.71-.15-.82-.67a17.35,17.35,0,0,1,0-4.38c0-.23,0-.52.18-.68a.54.54,0,0,1,.44-.07c.39.09.29.22.29.61v.9c0,.37-.1.62.19.77a4.93,4.93,0,0,0,1.64,0c.37,0,1.25.14,1.5-.12s.11-.57.1-.79c0-.73,0-1.26.82-1.47V310c0,.36.22,1.15-.3,1.11-.21,0-.22-.09-.33-.24a2.29,2.29,0,0,1-.18-.94,3.68,3.68,0,0,0-.12-1c-.17-.32-.65-.27-1.06-.29s-1.78-.22-2.12,0S553.94,310.73,553.86,311.14Z" transform="translate(-363.28 -249.13)"/><path class="cls-2" d="M365.76,305.32c1.5,0,5-.77,5.21,1.46.21,2.46-2.71,1.93-4.29,1.93a7.79,7.79,0,0,1,0,2.13c-.23.66-.73.39-.91-.09a9.08,9.08,0,0,1,0-2.55Q365.76,306.77,365.76,305.32Zm1,2.47a12.26,12.26,0,0,0,2.64,0,.79.79,0,0,0,.49-1.3c-.43-.48-1.53-.26-2.08-.26h-.69q-.52-.17-.35.33A5,5,0,0,0,366.73,307.79Z" transform="translate(-363.28 -249.13)"/><path class="cls-2" d="M415.88,311.09c.51-1.13,1-2.26,1.51-3.38.28-.63.71-2.36,1.52-2.45s1.31,1.64,1.59,2.26c.53,1.19,1,2.39,1.58,3.58-1,.43-1.08-.22-1.43-.92a1.58,1.58,0,0,0-1.73-.88,1.85,1.85,0,0,0-1.61.75C416.91,310.72,416.93,311.59,415.88,311.09Zm3.85-2.68a4.71,4.71,0,0,0-.8-1.82c-.15.45-.57.92-.58,1.4s-.13.32.34.42A5.75,5.75,0,0,0,419.73,308.41Z" transform="translate(-363.28 -249.13)"/><path class="cls-2" d="M531.27,311.1c.51-1.13,1-2.26,1.52-3.39.29-.63.7-2.32,1.51-2.43s1.32,1.61,1.59,2.23c.53,1.19,1.05,2.39,1.58,3.58-.88.43-1.09-.15-1.38-.83-.36-.84-.89-1-1.76-.94-.7,0-1.3.06-1.65.75S532.32,311.51,531.27,311.1Zm3.1-4.44a4.73,4.73,0,0,0-.74,1.71h1.52A5.13,5.13,0,0,0,534.37,306.66Z" transform="translate(-363.28 -249.13)"/><path class="cls-2" d="M578.23,311.11c-.86.31-1.08-.1-1.36-.79a1.57,1.57,0,0,0-1.72-1,1.76,1.76,0,0,0-1.68.72c-.4.69-.37,1.52-1.46,1.1.51-1.14,1-2.29,1.53-3.43.28-.61.77-2.46,1.6-2.46s1.31,1.86,1.58,2.47C577.23,308.84,577.72,310,578.23,311.11Zm-3.07-4.56a4.81,4.81,0,0,0-.76,1.85,5.41,5.41,0,0,0,1,0c.38-.09.32,0,.31-.41S575.31,307,575.16,306.55Z" transform="translate(-363.28 -249.13)"/><path class="cls-2" d="M570.43,310.22c-1.72,1.74-5.28,1.59-6-1.11a3.22,3.22,0,0,1,4.59-3.61c.38.18,1.67.82,1,1.27-.49.31-1.13-.38-1.59-.53a2.3,2.3,0,0,0-3.06,1.46,2.23,2.23,0,0,0,2,2.75,3,3,0,0,0,1.89-.41C569.83,309.71,570.13,309.47,570.43,310.22Z" transform="translate(-363.28 -249.13)"/><path class="cls-2" d="M547.62,306.67c-.63-.86-2,.14-2.1-1.32h3c.45,0,2-.29,1.89.35,0,.34-.25.37-.56.45a9.76,9.76,0,0,0-1,.14q-.53-.11-.35.4,0,.36,0,.72c0,1,0,1.95,0,2.92,0,.38,0,1.24-.68.88-.44-.22-.23-1.26-.23-1.65C547.62,308.6,547.62,307.63,547.62,306.67Z" transform="translate(-363.28 -249.13)"/><path class="cls-2" d="M539.62,311.26q0-1.46,0-2.92,0-.79,0-1.58c0-.32-.12-.9,0-1.18a.45.45,0,0,1,.53-.24c.52.08.34.57.34,1a26,26,0,0,0,0,3.18c.24,1.71,3.66,0,3.6,1.23C544.07,311.69,540.35,311.26,539.62,311.26Z" transform="translate(-363.28 -249.13)"/><path class="cls-2" d="M425.78,305.4v3a6,6,0,0,0,0,1.53q-.19.57.36.39h2.09c.42,0,.89-.14,1.07.21.38.74-.55.72-1,.72h-3.48q0-.38,0-.75,0-.73,0-1.46c0-.94,0-1.89,0-2.83C424.85,305.43,425,305.23,425.78,305.4Z" transform="translate(-363.28 -249.13)"/><path class="cls-2" d="M432,305.41c1.33-.37.92,1.26.92,2.11,0,.64,0,1.29,0,1.93,0,.36.19,1.32-.08,1.6-1,1-.84-1.23-.84-1.58Q432,307.44,432,305.41Z" transform="translate(-363.28 -249.13)"/></svg>